<?xml version="1.0" encoding="utf-8"?>
<!-- Generator: Adobe Illustrator 24.1.0, SVG Export Plug-In . SVG Version: 6.00 Build 0)  -->
<svg version="1.1" id="Layer_1" xmlns="http://www.w3.org/2000/svg" xmlns:xlink="http://www.w3.org/1999/xlink" x="0px" y="0px"
	 viewBox="0 0 150 150" style="enable-background:new 0 0 150 150;" xml:space="preserve">
<style type="text/css">
	.st0{fill:#055474;}
</style>
<g>

	<animateTransform attributeName="transform"
	attributeType="XML"
	type="rotate"
	from="0 75 75"
	to="360 75 75"
	dur="5s"
	repeatCount="indefinite" />

	<path class="st0" d="M140.1,81.7c0.3-0.9,0.4-1.8,0.5-3.1c-0.1-0.3-0.1-0.5-0.1-0.6c-0.1,0.5-0.2,1.1-0.4,1.8
		C139.9,81.1,139.9,81.7,140.1,81.7z"/>
	<path class="st0" d="M140.5,78c0.1-0.4,0.1-0.7,0.1-0.7c-0.1,0.2-0.1,0.3-0.2,0.5c0,0.1,0,0.1,0,0.1S140.5,77.9,140.5,78z"/>
	<path class="st0" d="M19.8,32.1C25.5,25,32.5,19,40.5,14.6c7.9-4.4,16.8-7.3,25.8-8.3c0.6-0.1,1.1-0.2,1.1-0.3c0-0.1-0.5-0.1-1,0
		c-9.1,1-17.9,3.8-25.9,8.2c-8,4.4-15.1,10.4-20.8,17.5c-0.4,0.5-0.6,0.9-0.6,1.1C19.1,32.9,19.5,32.6,19.8,32.1z"/>
	<path class="st0" d="M126.8,45.2c-0.3-0.3-0.3-0.2-0.2,0.1c0.1,0.3,0.4,0.8,0.6,1.1c0.2,0.3,0.3,0.2,0.2-0.1
		C127.3,45.9,127,45.4,126.8,45.2z"/>
	<path class="st0" d="M118.8,46.1c-1-1.6-2.4-2.9-3.6-4.1c-0.2-0.2-0.4-0.5-0.5-0.7c-0.1,0.2-0.4,0-0.9-0.5
		c-4.9-4.8-10.7-8.8-17.1-11.6c-6.4-2.8-13.3-4.3-20.2-4.2c-0.1,0.1-0.3,0.2-0.6,0.3c-0.5,0.2-1.2,0.2-2,0.4
		c-0.8,0.1-1.8,0.2-2.8,0.2l-1.5,0c-5.9,0.4-11.8,1.9-17.2,4.4c-1.1,0.6-2.2,1.5-3.5,2.3c-4.1,3.1-7.8,6.7-10.8,10.9
		c0.3-0.2,0.5-0.2,0.6-0.1c0.2,0.3-0.5,1.3-1.2,2.4l-1.2,1.7l1.9-2.3c0.6-0.8,1.4-1.4,2-2.1c0.2-0.2,0.4-0.4,0.6-0.5
		c0.4-0.4,0.7-0.8,1.1-1.2l1.2-1.1c0.8-0.7,1.6-1.5,2.5-2.2c3.7-3.1,7.9-5.5,12.2-7.4c4.3-2,8.9-3,13.6-3.6c9.4-1.2,19,0.4,27.6,4.5
		c0.3,0.1,0.7,0.4,0.9,0.6c0.1,0.2,0,0.2-0.3,0.1C94,29.7,88.5,28.7,83,28.5c-5.5-0.2-11.2,0.5-17,2.2c-7,2-13.2,5.8-18.4,10.5
		c-5,4.9-8.9,10.9-11.1,17.4c-2.6,6.7-3.4,13.9-2.1,20.7l0.5,2.5c0.2,0.8,0.5,1.7,0.7,2.5c0.4,1.7,1.2,3.2,1.8,4.8
		c1.6,3.1,3.3,6.2,5.7,8.9c6.2,7.4,14.7,12.3,23.6,14c9,1.6,18.5,0.2,26.5-4.3c1.4-1,2.9-1.7,4.2-2.7c0.7-0.4,1.3-0.8,2-1.2
		c0.6-0.4,1.2-0.8,1.8-1.1c0.6-0.3,1.2-0.6,1.6-0.9c0.5-0.3,0.9-0.5,1.4-0.7c0.9-0.4,1.6-0.5,2.1-0.4c1.2,0.3,1,2.3-0.8,5.2
		c0.5-0.4,0.9-0.9,1.4-1.4l2.3-2.1c0.9-1.1,1.9-2.1,2.8-2.9c0.9-0.9,1.6-1.6,2.3-2.2c0.6-0.5,1.3-1,1.8-1.6c2.7-2,5.9-6.2,8-8.5
		l0.4,0.7l0.3-0.6c1-2,1.9-3.3,2.5-3.7l0.7,0.3c0.8,0.6,1.2,1.9,1.5,3.9c0.3,0,0.5,0.3,0.7,0.9c1.1-1.4,2.1-2,2.6-0.5
		c0.5-0.9,0.7-0.7,0.6,0.5c0,0.4-0.1,0.9-0.3,1.4c0,0,0,0,0,0c0.3-0.5,0.4-0.6,0.8-1.3c0.3-1,0.5-1.6,0.5-1.6c0.4-1.3,0.5-2,0.7-2.6
		c0.1-0.6,0.2-1.2,0.5-2.4c0.3-1,0.6-1.8,0.7-2.4c0.2-0.6,0.3-0.9,0.3-0.9c1.4-2.2,1.4-2.2,1.9-1.8c0,0.1,0.1,0.3,0.1,0.5
		c0.3-1.9,0.3-2,0.4-2.5c0.1-0.5,0.3-0.9,0.3-0.9c0.3-0.1,0.3-0.1,0.4-0.4c0.1-0.1,0.2-0.1,0.2-0.1c0.3,1.1,0.3,1.1,0.4,1.1
		c0.1,0.3,0.1,0.6,0.1,0.6c0,1.3,0.1,1.8,0.1,2c-0.9,2.7-0.9,2.7-0.9,2.7c0.2,0.6,0.2,0.6,0.2,0.6c-0.4,0.6-0.4,0.6-0.4,0.6
		c0.4-0.3,0.4-0.3,0.4-0.3c-0.4,1.3-0.4,1.3-0.4,1.3c0.5-1.5,0.5-1.5,0.5-1.5c-0.6,3.2-0.6,3.2-0.8,4.5c-0.2,1.3-0.4,2.5-0.5,2.6
		c0.1-0.1,0.2-0.1,0.2-0.1c-0.5,1.7-0.7,2.5-1,3.3c-0.3,0.8-0.4,1.7-1.1,3.2c-0.2,0.3-0.3,0.5-0.5,0.7c0,0.3-0.2,1-0.5,1.6l-0.7,1.6
		c0,0.1-0.1,0.3-0.1,0.4c0,0,0,0,0,0c-0.1,0.6-0.3,1-0.5,1.4c-0.1,0.3-0.1,0.3-0.1,0.3l0,0c-0.2,0.5-0.4,1.1-0.7,2
		c-0.2,0.5-0.4,1-0.6,1.7c-0.2,0.7-0.5,1.5-1,2.4c-0.6,0.9-1.1,1.7-1.7,2.5c0.2-0.2,0.4-0.4,0.6-0.7c0.4-0.4,0.4,0.2,0.5-0.1
		c4.5-6.1,7.8-13.9,9.7-22c0.2-1.5,0.6-2.8,0.8-3c0.3-0.2,0.3,0.9,0.1,2.4c-0.7,8.5-3.8,17.8-9,25.9c-5.2,8.1-12.5,14.8-20.1,19.2
		c-2,1.1-4,2.3-6,3.4c-2.1,0.9-4.2,1.9-6.3,2.8c0.2,0,0.5-0.1,0.7-0.1c-1.1,0.4-2.3,0.7-3.4,1.1l-0.4,0.1c0.9-0.1,1.8-0.3,2.7-0.4
		c0.6-0.2,1.2-0.3,1.8-0.6c9.9-4.2,18.4-9.5,25.8-17.2c1-1,1.9-2.1,2.8-3.1c0.9-1,1.8-2,2.6-3c1.6-2.1,3.2-4.2,4.6-6.5
		c0.6-1.3,1.2-2.1,1.4-1.8c0.1,0.2-0.3,1.5-1,2.7c-4.2,8.3-10.6,16.1-18.1,21.8c-7.5,5.8-15.8,9.4-23,10.8c-1.5,0.6-3.1,0.9-4.6,1.2
		c-1.5,0.3-2.9,0.6-4.2,0.7l-0.1,0c0.7,0.1,1.4,0,2.1,0c-1.2,0.3-2.2,0.3-3.1,0.3c-0.9,0-1.8,0-2.9,0.1c0.3,0.2,0.6,0.3,0.9,0.5
		c-6,0.8-12.3,0.7-18.5,0.1c-3-0.5-6.1-0.9-8.9-1.9c-1.4-0.4-2.8-0.8-4.2-1.3c-1.3-0.6-2.6-1.1-3.9-1.7c-0.4-0.2-0.8-0.3-1.2-0.5
		c-2.3-0.6-4.5-1.6-6.9-2.6c-2.3-1.1-4.6-2.4-7-3.9c1.6,1.2,3.2,2.1,4.8,3.2c-1.8-1-3.7-1.9-5.5-3.1c-1.7-1.2-3.5-2.4-5.2-3.9
		c-2.2-2-4.6-4.1-6.5-6.6c-1-1.2-2-2.3-2.8-3.6c-0.8-1.2-1.6-2.5-2.4-3.7c-0.8-1.2-1.4-2.4-1.9-3.6c-0.6-1.2-1.1-2.3-1.5-3.4
		c-0.8-2.2-1.3-4.2-1.6-5.7C7.1,91.5,5.2,80,5.9,68.6c0-1.4,0.2-2.8,0.4-4.2L7,60.2L8,56c0.3-1.4,0.7-2.8,1.2-4.1l1.4-4
		c0.5-1.3,1.2-2.6,1.7-3.9c1.1-2.6,2.6-5.1,4.1-7.5c0.6-1,1.3-1.8,1.6-1.9c0.2,0-0.1,0.7-0.7,1.7C8.7,50.1,5.4,67.1,7.8,83
		c-0.7-6.7-0.6-13.5,0.8-20.2c1.3-6.6,3.4-13.2,6.7-19.3c0.7-1.6,1.7-3.1,2.6-4.6c0.4-0.8,0.9-1.5,1.4-2.2l1.6-2
		C31.2,20.6,46.4,11.2,64.1,7.9C71.7,6.6,79,6.4,86.2,7.5c7.2,1.1,14.3,3.2,21.3,6.7c9.8,5,18,12.1,24.3,20.6
		c6.2,8.6,10.4,18.8,11.9,29.7c0.1,0.7,0.2,1.4,0.3,2.1c0.1,0.7,0,1.3,0,1.9c-0.1,1.1-0.2,1.9-0.4,2.1c-0.5,0.4-0.9-1.7-1.3-4.6
		c-1.8-11.1-6.1-21.8-12.8-30.6c-6.7-8.8-15.4-16-25.4-20.6l-3.8-1.7l-3.9-1.3c-2.6-1-5.3-1.4-8-2.1c-1.3-0.3-2.7-0.4-4.1-0.6
		c-1.4-0.1-2.7-0.4-4.1-0.4c-2.7-0.1-5.5-0.3-8.3,0l-4.1,0.3l-4.1,0.7c-2.8,0.3-5.4,1.2-8.1,1.9c-5.3,1.8-10.5,3.9-15.3,6.9
		c-4.2,2.5-8,5.5-11.4,8.8c0.1,0,0.2,0,0.2,0.1c0.2,0.2,0,0.6-0.4,1.3c3.9-3.6,8.1-7.1,12.9-9.6C54.1,10.7,70,6.8,86,10
		c1.4,0.2,2.7,0.6,4,0.9c1.3,0.4,2.6,0.8,3.9,1.1c1.2,0.5,2.5,1,3.7,1.5c1.2,0.5,2.4,1,3.5,1.6c1.1,0.6,2.3,1.2,3.4,1.8
		c1.1,0.6,2.1,1.4,3.2,2.1c1,0.7,2.1,1.4,3.1,2.2l2.9,2.4c5.1,3.9,9.8,8.3,13.5,13.6c3.8,5.2,6.9,11,9,17.2c0.2,0.5,0.3,1,0.3,1.2
		c0,0.2-0.2,0-0.4-0.5c-3.2-8.4-8.1-16.3-14.4-22.8c0.7,1.2,1,2.1,0.6,2.3c-0.4,0.2-1.4-0.4-2.7-1.4c0.7,0.7,1.3,1.5,2,2.2l1.8,2.4
		c0.7,1,1.2,1.9,1,1.9c-0.2,0.1-0.9-0.6-1.6-1.5c-4.7-6.4-10.8-11.9-17.6-16c-2-1.3-4.3-2.1-6.4-3.2c-1.1-0.5-2.2-0.8-3.4-1.2
		c-1.1-0.4-2.2-0.8-3.4-1.1c-4.6-1.2-9.3-2.1-14.1-2.2c1.3,0.3,2.2,0.7,2.6,1.1l0,0c1.4,0.2,2.9,0.4,4.3,0.6
		c13.1,1.8,26,8.2,35.2,18.6c9.2,10.3,14.8,24.1,14.8,38.1c0,0.5,0,1-0.1,1c-0.1,0-0.2-0.4-0.2-0.9c0-8.4-2-16.8-5.6-24.4l0,0
		c0.1,0.3,0,0.4-0.2,0.1c-0.2-0.3-0.5-0.9-0.6-1.2c-0.1-0.4,0-0.4,0.2-0.1c-7-14-19.8-24.6-34.1-29c6.6,2.3,12.7,5.7,18.1,10.2
		c5.4,4.4,9.9,9.9,13.2,16c0.9,1.2,1.6,2.6,2.4,3.9c0.2,0.4,0.4,0.9,0.4,1.1c0,0.1-0.2-0.1-0.4-0.5l-0.6-1.1c0.6,1.2,1,2.3,1.2,3.1
		c0.1,0.8,0.1,1.4-0.1,1.5c-0.3,0-0.7-0.5-1.1-1.2c-0.5-0.7-1.1-1.8-1.7-3c-3.3-6.3-7.6-11.9-12.9-16.6l-1.7-1.5
		c-0.6-0.4-1.3-0.8-2-1.2c4.2,3.4,8.1,7.3,11.1,11.8c3.1,4.4,5.6,9.2,7.1,14.4c0.3,0.9,0.5,1.6,0.3,1.7c-0.2,0.1-0.6-0.6-0.9-1.4
		c-6.6-17.5-22.7-30.6-40.7-34.1c-6.1-0.5-12.1,0.1-17.9,1.6c0.7-0.1,1.5-0.2,2.2-0.2c9.5-0.7,18.6,0.3,26.9,3.7
		c4.2,1.5,8.1,3.9,11.9,6.6c1.8,1.5,3.7,2.9,5.2,4.6c0.8,0.9,1.7,1.6,2.4,2.6c0.7,0.9,1.5,1.9,2.2,2.8c0.3,0.4,0.5,0.7,0.4,0.9
		c0,0.1-0.3-0.1-0.6-0.5c-5.7-7.5-12.8-12.8-21.2-16.3c-6.9-2.9-14.1-4.2-20.9-3.8c7,0.2,13.8,1.6,20.1,4.2
		c6.3,2.7,12.2,6.7,17.1,11.9c0.4,0.4,0.8,0.9,1,1.3c0.1,0,0.2,0.1,0.3,0.2c0.6,0.6,1.3,1.3,1.9,2c0.6,0.7,1.3,1.4,1.9,2.3
		c0.2,0.3,0.5,0.7,0.5,1C119.3,46.6,119.1,46.5,118.8,46.1z M111.8,124.5c0.2-0.1,0.3-0.1,0.4-0.2c-0.4,0.2-0.8,0.5-1.3,0.8
		c0,0,0,0-0.3,0.1c-0.3,0.1-0.8,0.3-1.8,0.5c0,0,0.4-0.1,1-0.4C110.3,125.2,111.1,124.9,111.8,124.5z M126.9,103.6
		C126.9,103.6,126.9,103.6,126.9,103.6c0.6-0.4,0.9-0.8,0.9-0.8C127.5,103.1,127.2,103.4,126.9,103.6z M8.2,70
		c-0.6,9.6,0.7,19.2,3.7,28.3c-0.8-2.2-1.7-4.4-2.3-6.6l-0.6-2.7l-0.3-1.3l-0.2-1.4L8,80.8l-0.1-5.4l0-1.4L8,72.7L8.2,70z
		 M126.6,113.8c-1.7,1.8-3.4,2.9-5,3.9c-0.5,0.6-1,1.3-1.6,1.9c-0.6,0.6-1.2,1.2-1.9,1.7c-0.9,0.8-1.7,1.5-2.6,2.3
		c-0.9,0.7-1.8,1.3-2.7,2c-0.9,0.6-1.8,1.3-2.7,1.9c-1,0.5-1.9,1.1-2.9,1.6c0.6-0.1-0.3,0.4-0.7,0.7c-0.5,0.3-0.9,0.6-1.4,0.9
		c2-1.1,4.2-2.2,6.2-3.5c1-0.7,2-1.3,3-2l1.5-1l1.4-1.1c1.7-1.4,3.5-2.8,5-4.5C123.7,117,125.3,115.4,126.6,113.8z M138.4,83.2
		c0.1-0.1,0.1-0.2,0.2-0.4c0,0,0,0,0.2,0.9C138.8,83.8,138.6,83.5,138.4,83.2z M137.9,81.8c0,0.2-0.1,0.4-0.2,0.7
		C137.7,82.2,137.8,82,137.9,81.8z M136.5,87.7c0.2-0.3,0.3-0.5,0.4-0.8C136.5,87.7,136.5,87.7,136.5,87.7z M124.8,88.8
		c0.5,0.8,0.9,1.6,1.2,2.5l-0.5-1.3l-0.6-1.3L124.8,88.8z"/>
</g>
</svg>
